<svg width="564" height="698" viewBox="0 0 564 698" fill="none" xmlns="http://www.w3.org/2000/svg">
<g clip-path="url(#clip0_111_965)">
<path d="M281.36 697.512C436.053 697.512 561.457 687.264 561.457 674.621C561.457 661.978 436.053 651.729 281.36 651.729C126.667 651.729 1.26389 661.978 1.26389 674.621C1.26389 687.264 126.667 697.512 281.36 697.512Z" fill="#E6E7E8"/>
<path d="M324.086 87.7234C366.239 95.7471 405.076 125.14 440.457 161.247C475.838 197.354 507.477 240.249 512.648 286.043C517.819 331.836 496.595 380.816 471.314 425.952C446.033 471.088 417.342 512.519 377.951 523.367C338.921 534.427 289.553 515.117 245.72 504.163C202.249 493.421 164.462 491.608 137.935 473.096C111.408 454.584 96.5019 419.585 74.8338 383.281C53.1656 346.978 24.7354 309.371 23.8802 271.945C22.664 234.306 49.3092 196.774 81.8629 169.031C114.417 141.288 152.518 123.123 194.739 107.867C236.599 92.398 281.858 79.4131 324.086 87.7234Z" fill="#339AF0"/>
<path d="M199.895 156.21C195.599 156.499 191.314 155.521 187.567 153.397C183.821 151.273 180.779 148.097 178.818 144.26C176.857 140.424 176.062 136.096 176.532 131.812C177.002 127.528 178.716 123.476 181.463 120.157C169.448 114.615 163.094 100.383 163.975 87.1893C164.855 73.996 171.807 61.9992 180.488 51.8603C187.628 43.579 196.592 36.1165 207.318 34.0698C209.348 33.8673 211.328 33.3133 213.168 32.4324C214.617 31.4125 215.873 30.1439 216.88 28.6854C224.712 18.6724 234.368 9.47801 246.447 5.44761C258.525 1.4172 273.308 3.71579 281.392 13.5714C285.433 10.0597 290.443 7.85902 295.761 7.26052C301.078 6.66203 306.452 7.69393 311.171 10.2197C315.889 12.7455 319.731 16.646 322.187 21.4053C324.643 26.1645 325.597 31.558 324.924 36.8722C333.434 38.1299 341.413 41.776 347.938 47.3879C354.462 52.9998 359.264 60.3478 361.788 68.5802C366.286 85.1426 358.643 104.602 343.387 112.442C341.626 113.355 339.519 114.552 339.581 116.504C339.755 117.682 340.281 118.78 341.091 119.653C345.998 126.675 343.545 136.845 337.946 143.206C332.347 149.566 323.98 152.935 315.928 156.147C317.719 157.945 318.913 160.252 319.346 162.754C319.78 165.256 319.432 167.831 318.35 170.128C316.017 174.725 312.385 178.536 307.907 181.085C290.419 192.389 268.779 188.863 249.183 189.272C231.097 189.65 213.137 178.094 201.153 164.995C198.826 162.508 196.97 157.973 199.895 156.21Z" fill="white"/>
<path d="M270.855 191.067C267.709 191.067 264.564 191.067 261.67 191.067C257.581 191.067 253.304 190.878 249.277 191.067C232.859 191.35 214.678 182.124 200.021 166.286C198.989 165.25 198.179 164.016 197.638 162.657C197.097 161.299 196.838 159.844 196.875 158.382C196.858 158.268 196.858 158.151 196.875 158.036C192.641 157.832 188.54 156.484 185.01 154.134C181.479 151.784 178.651 148.521 176.825 144.691C174.999 140.86 174.243 136.606 174.639 132.381C175.035 128.155 176.567 124.116 179.073 120.692C168.221 114.709 161.458 101.201 162.402 87.0947C163.188 75.0349 168.881 62.8493 179.293 50.821C188.351 40.3671 197.41 34.3845 207.035 32.5267L208.104 32.3378C209.618 32.2783 211.091 31.8373 212.389 31.0556C213.687 30.274 214.766 29.1771 215.528 27.8666C225.404 15.2716 235.312 7.52562 245.943 3.96753C259.06 -0.40924 273.434 2.64505 281.581 11.3671C285.868 8.05342 291.023 6.05452 296.421 5.61222C301.82 5.16993 307.231 6.30321 311.999 8.87494C316.768 11.4467 320.69 15.3466 323.291 20.103C325.891 24.8594 327.06 30.2684 326.654 35.6755C335.152 37.213 343.066 41.0561 349.533 46.786C356 52.5159 360.772 59.9128 363.329 68.1706C368.11 85.7722 359.649 105.956 344.111 113.859C342.538 114.646 341.123 115.528 341.154 116.473C341.31 117.126 341.623 117.731 342.066 118.236L342.349 118.645C347.948 126.58 344.771 137.695 338.952 144.119C333.197 149.774 326.256 154.076 318.633 156.714C320.01 158.777 320.842 161.156 321.051 163.628C321.26 166.101 320.84 168.586 319.828 170.852C317.421 175.706 313.621 179.73 308.914 182.407C297.245 189.964 284.034 191.067 270.855 191.067ZM252.769 187.666C255.757 187.666 258.777 187.666 261.733 187.666C277.46 187.981 293.659 188.327 307.09 179.637C311.322 177.276 314.751 173.701 316.935 169.372C317.911 167.366 318.238 165.105 317.872 162.905C317.505 160.704 316.463 158.672 314.89 157.091C314.684 156.916 314.527 156.691 314.433 156.437C314.34 156.184 314.313 155.91 314.355 155.643C314.4 155.372 314.512 155.117 314.683 154.902C314.854 154.687 315.077 154.519 315.331 154.415C322.691 151.455 331.057 148.118 336.625 141.82C341.626 136.31 344.425 126.863 339.77 120.251L339.487 119.905C338.63 118.915 338.102 117.682 337.977 116.378C337.977 113.229 340.965 111.718 342.633 110.868C356.913 103.5 364.65 85.048 360.247 68.8004C357.758 60.904 353.099 53.8688 346.802 48.5005C340.505 43.1322 332.824 39.6478 324.641 38.4464C324.234 38.384 323.868 38.1644 323.621 37.8348C323.374 37.5051 323.266 37.0916 323.32 36.6831C323.938 31.6949 323.036 26.6363 320.732 22.1704C318.427 17.7045 314.829 14.0398 310.408 11.6568C305.987 9.27382 300.95 8.28376 295.958 8.81642C290.965 9.34909 286.25 11.3796 282.43 14.6418C282.272 14.781 282.087 14.8863 281.887 14.9513C281.687 15.0163 281.476 15.0395 281.266 15.0197C281.058 15.0041 280.856 14.9458 280.672 14.8482C280.488 14.7507 280.326 14.6161 280.197 14.4529C273.119 5.82529 259.437 2.67653 246.981 6.86438C236.948 10.2021 227.511 17.6331 218.138 29.5669C217.028 31.1822 215.631 32.5802 214.018 33.6918C212.357 34.5767 210.542 35.1327 208.671 35.3291L207.664 35.5181C198.763 37.2499 190.27 42.8861 181.683 52.7732C171.744 64.2662 166.334 75.8536 165.579 87.1891C164.667 100.792 171.461 113.702 182.155 118.677C182.372 118.778 182.564 118.927 182.717 119.112C182.869 119.297 182.978 119.514 183.036 119.747C183.086 119.984 183.081 120.23 183.021 120.465C182.961 120.7 182.848 120.917 182.69 121.101C180.096 124.17 178.467 127.938 178.008 131.931C177.548 135.924 178.279 139.964 180.108 143.542C181.938 147.121 184.783 150.077 188.288 152.04C191.792 154.003 195.797 154.884 199.801 154.572C200.159 154.536 200.519 154.626 200.817 154.827C201.116 155.029 201.335 155.328 201.436 155.675C201.543 156.012 201.533 156.377 201.407 156.708C201.282 157.04 201.048 157.319 200.744 157.501C200.55 157.609 200.385 157.763 200.264 157.949C200.144 158.136 200.071 158.35 200.052 158.571C200.106 160.581 200.941 162.49 202.38 163.893C216.282 179.07 233.834 187.949 249.215 187.634L252.769 187.666Z" fill="#212529"/>
<path d="M424.538 617.345C431.741 617.345 485.433 623.17 510.565 635.671C535.696 648.172 541.138 649.148 536.042 666.025C530.947 682.902 486.691 687.059 453.004 680.698C431.307 676.233 410.379 668.616 390.883 658.09L424.538 617.345Z" fill="white"/>
<path d="M484.772 685.201C474.024 685.159 463.303 684.104 452.752 682.052C430.907 677.553 409.832 669.894 390.191 659.318C390.008 659.208 389.85 659.062 389.726 658.889C389.601 658.715 389.513 658.519 389.467 658.311C389.431 658.105 389.44 657.894 389.494 657.693C389.549 657.491 389.647 657.304 389.782 657.145L423.437 616.401C423.561 616.233 423.722 616.098 423.908 616.005C424.094 615.912 424.299 615.864 424.507 615.865H424.821C433.597 615.865 486.031 621.848 511.194 634.348L516.855 637.151C537.017 647.038 542.459 649.746 537.426 666.434C534.249 677.014 513.553 685.201 484.772 685.201ZM393.116 657.649C412.056 667.659 432.313 674.941 453.287 679.281C487.1 685.579 530.003 681.107 534.69 665.616C538.999 651.257 535.885 649.714 515.597 639.764L509.936 636.962C485.936 625.028 434.604 618.951 425.199 618.762L393.116 657.649Z" fill="#212529"/>
<path d="M431.741 617.188C436.49 618.352 440.624 621.271 443.313 625.359C446.003 629.447 447.049 634.401 446.241 639.229C443.882 657.145 406.043 657.901 403.873 658.122C401.703 658.342 431.741 617.188 431.741 617.188Z" fill="white"/>
<path d="M403.873 659.129C403.592 659.121 403.318 659.041 403.076 658.898C402.834 658.755 402.632 658.553 402.489 658.311C402.017 657.366 401.262 655.918 430.577 616.212C430.746 615.98 430.98 615.805 431.249 615.71C431.519 615.614 431.811 615.603 432.087 615.676C432.244 615.676 450.173 620.179 447.814 639.166C445.424 657.397 410.95 659.003 404.062 659.129H403.873ZM432.182 618.731C422.966 631.326 409.252 650.218 405.823 656.201C414.442 655.792 442.781 653.367 444.7 638.788C445.439 634.522 444.584 630.133 442.299 626.458C440.014 622.782 436.457 620.076 432.307 618.857L432.182 618.731Z" fill="#212529"/>
<path d="M151.299 658.216C150.198 658.783 139.912 672.165 95.0592 677.518C50.2061 682.871 33.567 692.537 23.5646 668.953C13.5623 645.369 20.4193 630.129 42.437 623.391C64.4546 616.652 125.444 611.079 137.396 622.352C149.349 633.624 151.299 658.216 151.299 658.216Z" fill="white"/>
<path d="M45.7082 685.516C34.605 685.516 27.4649 681.8 22.2436 669.52C17.0223 657.24 16.2359 646.692 20.0418 638.536C23.5647 630.979 30.9878 625.406 42.0595 622.037C62.7562 615.739 125.632 609.253 138.403 621.313C150.638 632.837 152.588 657.083 152.683 658.09C152.697 658.357 152.641 658.623 152.519 658.861C152.398 659.098 152.215 659.3 151.991 659.444L151.55 659.822C138.623 671.598 113.806 676.731 95.1851 678.935C85.5287 680.1 77.2249 681.454 70.022 682.65C61.9991 684.205 53.8723 685.163 45.7082 685.516ZM103.772 617.314C82.2261 617.314 56.1194 620.746 42.9717 624.776C32.6548 627.925 25.7979 632.963 22.6525 639.764C19.1926 647.132 19.9475 656.768 24.8857 668.387C32.2774 685.862 43.1918 684.13 69.4873 679.817C76.8475 678.62 85.2142 677.266 94.902 676.101C113.082 673.928 137.333 668.953 149.695 657.681C149.254 653.556 146.549 633.183 136.39 623.485C131.86 619.014 118.933 617.314 103.772 617.314Z" fill="#212529"/>
<path d="M165.61 648.581C165.61 648.581 145.26 665.584 131.703 663.569C118.146 661.554 99.3999 654.123 106.949 639.481C114.498 624.839 163.094 616.023 163.094 616.023L165.61 648.581Z" fill="white"/>
<path d="M134.031 665.175C133.178 665.176 132.326 665.113 131.483 664.986C121.323 663.475 109.056 659.129 105.124 651.415C104.154 649.438 103.694 647.25 103.788 645.049C103.881 642.849 104.525 640.707 105.659 638.82C113.46 623.643 160.829 614.984 162.842 614.606C163.04 614.572 163.243 614.579 163.438 614.628C163.633 614.677 163.816 614.766 163.975 614.889C164.134 615.015 164.266 615.172 164.364 615.351C164.461 615.53 164.521 615.726 164.541 615.928L167.057 648.455C167.075 648.685 167.038 648.915 166.951 649.129C166.863 649.342 166.727 649.532 166.554 649.683C165.736 650.344 147.839 665.175 134.031 665.175ZM161.804 617.755C153.469 619.392 114.624 627.673 108.333 640.142C107.405 641.623 106.866 643.315 106.767 645.06C106.668 646.805 107.012 648.547 107.767 650.124C111.227 656.831 122.55 660.735 132.018 662.152C143.561 663.884 160.892 650.596 164.226 647.951L161.804 617.755Z" fill="#212529"/>
<path d="M410.07 505.753C410.07 505.753 388.618 589.51 310.329 605.506C232.041 621.501 191.528 617.282 163.786 564.383C136.044 511.484 154.35 479.115 154.35 479.115L401.42 474.203L410.07 505.753Z" fill="#212529"/>
<path d="M245.755 615.299C208.01 615.299 181.809 602.137 162.37 565.107C134.565 512.051 152.274 479.682 152.934 478.328C153.072 478.09 153.269 477.892 153.506 477.754C153.743 477.616 154.012 477.542 154.287 477.54L401.357 472.628C401.713 472.61 402.065 472.717 402.352 472.929C402.638 473.142 402.843 473.447 402.93 473.793L411.485 505.281C411.548 505.55 411.548 505.83 411.485 506.1C411.265 506.95 388.901 591.116 310.518 607.017C285.764 612.15 264.344 615.299 245.755 615.299ZM155.388 480.658C152.934 485.853 140.542 516.648 165.17 563.659C193.321 617.188 234.368 619.455 309.858 603.963C383.554 588.912 406.547 511.925 408.277 505.753L400.13 475.809L155.388 480.658Z" fill="#212529"/>
<path d="M135.918 506.509C135.918 506.509 95.4367 375.521 100.752 293.433C106.068 211.345 136.547 208.416 178.129 203.788C196.592 201.71 294.948 187.131 331.781 230.521C368.613 273.911 433.44 477.131 433.44 477.131L135.918 506.509Z" fill="#FF922B"/>
<path d="M282.021 204.008L275.73 247.839C275.73 247.839 261.953 270.478 234.368 259.017C206.783 247.555 206.249 226.427 206.249 226.427L219.333 145.441C219.333 145.441 248.428 119.306 260.664 69.3672C260.664 69.3672 285.04 111.938 320.426 121.511C320.426 121.511 318.067 156.871 311.745 178.786C305.454 199.978 282.461 203.756 282.021 204.008Z" fill="white"/>
<path d="M249.152 263.803C243.802 263.738 238.519 262.603 233.613 260.465C205.305 248.752 204.55 227.372 204.519 226.459L217.698 145.189C217.762 144.829 217.938 144.498 218.201 144.245C218.484 143.993 247.076 117.858 259.091 68.9894C259.177 68.6893 259.348 68.4202 259.582 68.2137C259.816 68.0073 260.104 67.8722 260.412 67.8243C260.72 67.7808 261.033 67.8294 261.313 67.9639C261.593 68.0984 261.826 68.3127 261.985 68.58C262.236 69.0209 286.487 110.71 320.741 119.968C321.095 120.062 321.405 120.277 321.617 120.576C321.83 120.875 321.931 121.239 321.904 121.605C321.904 121.951 319.451 157.406 313.16 179.227C307.97 197.207 291.143 203.378 283.468 205.268L277.177 248.059C277.148 248.268 277.084 248.47 276.988 248.657C273.889 253.219 269.745 256.973 264.903 259.607C260.062 262.242 254.661 263.68 249.152 263.803ZM220.843 146.197L207.821 226.679C207.821 227.183 208.765 246.642 234.997 257.568C259.5 267.739 272.742 249.633 274.252 247.272L280.543 203.788C280.572 203.549 280.659 203.321 280.796 203.123C280.933 202.926 281.116 202.765 281.329 202.654C281.619 202.486 281.94 202.379 282.273 202.339C289.035 200.733 305.328 195.16 310.172 178.346C315.708 159.17 318.224 129.194 318.696 122.676C289.129 113.985 267.678 83.4736 261.261 73.3661C249.309 117.701 224.24 142.733 220.843 146.197Z" fill="#212529"/>
<path d="M236.287 146.669C235.934 142.573 234.255 138.703 231.506 135.649C228.833 132.904 225.704 130.645 222.259 128.973C220.472 127.867 218.464 127.168 216.377 126.927C214.9 126.941 213.439 127.229 212.068 127.777C208.718 128.846 205.862 131.08 204.015 134.074C202.8 136.614 202.227 139.415 202.348 142.229C202.224 145.275 202.499 148.324 203.166 151.298C203.905 154.267 205.228 157.059 207.059 159.51C208.89 161.961 211.192 164.021 213.828 165.569C216.465 167.118 219.384 168.124 222.414 168.528C225.444 168.932 228.525 168.727 231.475 167.923" fill="white"/>
<path d="M225.498 170.159C220.025 170.164 214.706 168.339 210.387 164.973C206.068 161.608 202.995 156.894 201.656 151.581C200.927 148.488 200.631 145.309 200.776 142.135C200.665 139.068 201.302 136.02 202.631 133.255C204.635 129.964 207.747 127.496 211.407 126.297C212.972 125.688 214.635 125.368 216.314 125.352C218.644 125.598 220.89 126.362 222.888 127.588C226.484 129.345 229.75 131.71 232.544 134.578C235.527 137.895 237.349 142.096 237.734 146.543C237.76 146.959 237.624 147.369 237.354 147.686C237.084 148.004 236.701 148.203 236.287 148.243C235.873 148.262 235.468 148.123 235.153 147.854C234.838 147.585 234.636 147.207 234.589 146.795C234.28 143.049 232.768 139.503 230.279 136.688C227.723 134.088 224.731 131.957 221.441 130.39C219.872 129.383 218.099 128.738 216.251 128.501C214.977 128.511 213.717 128.768 212.539 129.257C209.568 130.175 207.01 132.101 205.305 134.704C204.237 137.03 203.741 139.578 203.858 142.135C203.707 145.044 203.972 147.96 204.644 150.794C205.336 153.55 206.569 156.142 208.27 158.417C209.971 160.692 212.107 162.606 214.554 164.048C217.001 165.489 219.71 166.429 222.523 166.814C225.336 167.198 228.197 167.018 230.94 166.286C231.34 166.18 231.766 166.236 232.125 166.442C232.485 166.648 232.748 166.988 232.859 167.388C232.911 167.588 232.923 167.797 232.894 168.003C232.865 168.208 232.796 168.405 232.691 168.584C232.586 168.762 232.446 168.918 232.281 169.042C232.115 169.167 231.927 169.257 231.726 169.309C229.698 169.87 227.603 170.156 225.498 170.159Z" fill="#212529"/>
<path d="M275.824 134.169C275.824 134.169 288.186 158.572 284.128 162.067C280.071 165.562 270.32 161.72 270.32 161.72" fill="white"/>
<path d="M279.064 165.121C275.833 165.021 272.642 164.372 269.628 163.2C269.436 163.124 269.261 163.01 269.112 162.866C268.964 162.722 268.846 162.55 268.764 162.36C268.682 162.169 268.638 161.965 268.636 161.758C268.633 161.551 268.671 161.346 268.747 161.153C268.908 160.77 269.211 160.464 269.592 160.3C269.973 160.135 270.403 160.125 270.792 160.272C273.088 161.153 280.228 163.2 282.965 160.87C284.632 159.485 280.48 147.078 274.315 134.861C274.218 134.678 274.159 134.477 274.142 134.271C274.124 134.064 274.149 133.856 274.213 133.659C274.278 133.462 274.381 133.281 274.518 133.125C274.654 132.969 274.82 132.842 275.007 132.752C275.379 132.573 275.807 132.546 276.199 132.675C276.592 132.804 276.92 133.079 277.114 133.444C280.983 141.127 289.538 159.39 285.04 163.263C283.317 164.545 281.209 165.2 279.064 165.121Z" fill="#212529"/>
<path d="M260.469 128.653C260.706 125.741 259.214 123.243 257.136 123.073C255.059 122.904 253.182 125.127 252.945 128.039C252.708 130.951 254.2 133.449 256.278 133.618C258.355 133.788 260.232 131.565 260.469 128.653Z" fill="#212529"/>
<path d="M299.437 134.043C299.654 131.129 298.144 128.642 296.066 128.487C293.987 128.332 292.126 130.568 291.909 133.482C291.692 136.395 293.202 138.883 295.281 139.038C297.359 139.193 299.22 136.956 299.437 134.043Z" fill="#212529"/>
<path d="M272.616 184.643C267.807 184.728 263.048 183.648 258.745 181.494C251.228 177.558 246.415 170.033 244.434 159.138C244.397 158.933 244.402 158.724 244.448 158.521C244.493 158.318 244.578 158.126 244.698 157.956C244.818 157.786 244.97 157.642 245.146 157.531C245.322 157.421 245.518 157.346 245.723 157.312C246.131 157.247 246.548 157.341 246.887 157.576C247.227 157.81 247.464 158.167 247.547 158.571C249.309 168.459 253.587 175.228 260.129 178.692C273.34 185.619 291.929 177.244 292.118 177.149C292.497 176.979 292.929 176.966 293.318 177.113C293.707 177.261 294.022 177.557 294.194 177.936C294.282 178.124 294.332 178.327 294.34 178.535C294.349 178.742 294.315 178.949 294.242 179.143C294.168 179.337 294.057 179.514 293.913 179.664C293.77 179.814 293.598 179.933 293.407 180.014C286.838 182.879 279.779 184.451 272.616 184.643Z" fill="#212529"/>
<path d="M282.021 204.008C282.021 204.008 253.712 206.338 239.118 194.814C239.118 194.814 251.542 234.173 277.649 234.047L282.021 204.008Z" fill="#212529"/>
<path d="M277.46 235.622C250.599 235.622 238.08 196.923 237.545 195.286C237.453 194.963 237.464 194.619 237.576 194.303C237.689 193.987 237.898 193.714 238.174 193.523C238.439 193.316 238.766 193.204 239.102 193.204C239.438 193.204 239.765 193.316 240.03 193.523C254.09 204.512 281.549 202.402 281.832 202.371C282.066 202.354 282.301 202.39 282.52 202.477C282.738 202.563 282.935 202.697 283.094 202.869C283.254 203.041 283.374 203.247 283.444 203.471C283.514 203.696 283.533 203.933 283.499 204.166L279.127 234.236C279.06 234.628 278.855 234.983 278.549 235.237C278.243 235.491 277.857 235.627 277.46 235.622ZM242.232 198.781C246.226 208.637 257.55 231.465 276.233 232.441L280.102 205.708C274.063 205.96 255.442 206.149 242.295 198.781H242.232Z" fill="#212529"/>
<path d="M146.958 211.093C88.8628 203.851 34.3219 450.745 66.0273 474.203C115.473 510.823 266.388 460.821 266.388 460.821L251.29 395.673C251.29 395.673 142.366 400.868 140.384 378.481C138.403 356.093 201.247 251.145 192.44 235.842C183.633 220.539 146.958 211.093 146.958 211.093Z" fill="#FF922B"/>
<path d="M349.804 397.499C349.457 397.509 349.119 397.389 348.857 397.161C348.595 396.934 348.428 396.616 348.388 396.271C340.902 343.624 324.484 255.459 319.168 250.295C318.909 250.024 318.765 249.663 318.767 249.289C318.768 248.914 318.914 248.554 319.175 248.285C319.435 248.016 319.79 247.859 320.164 247.846C320.538 247.833 320.903 247.966 321.181 248.217C328.006 254.86 345.558 355.998 351.219 395.862C351.273 396.242 351.174 396.627 350.944 396.934C350.714 397.241 350.372 397.445 349.993 397.499H349.804Z" fill="#212529"/>
<path d="M294.225 522.064L193.95 493.945L378.112 459.278L477.79 501.093L294.225 522.064Z" fill="white"/>
<path d="M294.225 523.733C294.09 523.763 293.951 523.763 293.816 523.733L193.541 495.394C193.124 495.394 192.724 495.228 192.429 494.933C192.134 494.638 191.969 494.237 191.969 493.82C191.969 493.402 192.134 493.002 192.429 492.706C192.724 492.411 193.124 492.245 193.541 492.245L377.704 457.609C377.99 457.515 378.298 457.515 378.584 457.609L478.261 499.424C478.58 499.56 478.846 499.797 479.016 500.098C479.187 500.4 479.253 500.75 479.205 501.093C479.158 501.441 478.996 501.763 478.746 502.008C478.495 502.254 478.17 502.408 477.821 502.447L294.414 523.733H294.225ZM200.87 494.355L294.351 520.584L471.625 500.338L377.924 461.041L200.87 494.355Z" fill="#212529"/>
<path d="M235.06 418.187C257.078 420.611 277.492 422.185 297.968 430.782C309.669 435.701 320.719 442.047 330.869 449.674C336.04 453.348 340.872 457.479 345.306 462.017C348.829 465.859 347.697 469.606 341.783 467.748C334.907 465.591 328.396 462.407 322.471 458.302C336.638 469.873 349.195 483.29 359.806 498.196C361.002 499.897 362.165 502.321 360.75 503.833C359.334 505.344 356.189 503.833 354.459 502.258L323.351 472.723C331.586 479.835 338.59 488.262 344.079 497.661C344.866 499.015 345.621 500.81 344.803 502.038C343.419 504.336 339.896 502.605 338.009 500.684C328.691 491.265 320.218 481.045 312.688 470.141L329.485 495.331C329.326 495.796 329.076 496.224 328.751 496.592C328.426 496.959 328.031 497.258 327.589 497.472C327.147 497.686 326.668 497.81 326.178 497.837C325.688 497.864 325.198 497.794 324.735 497.63C322.885 496.865 321.285 495.6 320.112 493.977L299.761 470.582L311.776 487.144C313.664 489.726 315.551 493.442 313.38 495.866C311.21 498.291 306.303 495.866 303.535 493.41C292.402 483.24 280.175 474.337 267.08 466.866C262.331 464.064 258.273 460.254 253.02 458.648C245.472 456.318 236.035 456.633 228.172 455.751" fill="white"/>
<path d="M359.24 505.974C357.138 505.736 355.183 504.779 353.704 503.266L343.639 493.819C344.3 494.858 344.96 495.929 345.558 496.968C346.194 497.788 346.598 498.766 346.725 499.797C346.853 500.828 346.699 501.874 346.281 502.825C345.999 503.31 345.608 503.722 345.138 504.028C344.668 504.335 344.133 504.526 343.576 504.588C342.386 504.573 341.213 504.31 340.13 503.817C339.047 503.324 338.078 502.611 337.285 501.723C335.209 499.645 333.196 497.535 331.215 495.425C331.229 495.54 331.229 495.657 331.215 495.772C331.095 496.354 330.855 496.905 330.508 497.388C330.161 497.871 329.716 498.275 329.202 498.574C328.523 498.98 327.768 499.243 326.983 499.346C326.199 499.449 325.402 499.39 324.641 499.172C322.525 498.341 320.691 496.921 319.357 495.079L315.645 490.828C316.108 491.854 316.271 492.99 316.115 494.104C315.959 495.219 315.491 496.267 314.764 497.126C314.311 497.633 313.76 498.043 313.143 498.33C312.527 498.617 311.858 498.775 311.179 498.794C307.894 498.436 304.852 496.891 302.623 494.449C291.599 484.333 279.464 475.502 266.451 468.126C264.847 467.181 263.306 466.11 261.796 464.977C259.048 462.831 255.981 461.131 252.706 459.939C247.222 458.55 241.597 457.789 235.941 457.672C233.236 457.514 230.594 457.357 228.109 457.105C227.73 457.058 227.385 456.862 227.149 456.561C226.914 456.261 226.806 455.879 226.851 455.499C226.87 455.313 226.927 455.132 227.017 454.967C227.106 454.803 227.228 454.658 227.374 454.54C227.521 454.423 227.689 454.336 227.869 454.285C228.049 454.233 228.238 454.218 228.424 454.24C230.877 454.491 233.456 454.649 236.098 454.806C241.989 454.919 247.846 455.711 253.555 457.168C257.101 458.466 260.43 460.291 263.432 462.584C264.879 463.623 266.357 464.63 267.898 465.544C281.089 473.047 293.401 482.003 304.605 492.245C306.306 493.977 308.506 495.133 310.896 495.551C311.188 495.541 311.475 495.471 311.74 495.347C312.005 495.222 312.242 495.045 312.437 494.827C314.135 492.969 311.808 489.348 310.738 487.868L298.723 471.337C298.611 471.193 298.528 471.028 298.48 470.851C298.432 470.675 298.419 470.49 298.442 470.309C298.466 470.127 298.525 469.952 298.616 469.793C298.707 469.635 298.829 469.496 298.975 469.385C299.239 469.125 299.595 468.98 299.965 468.98C300.336 468.98 300.692 469.125 300.956 469.385L321.338 492.78C322.333 494.174 323.694 495.264 325.27 495.929C325.642 496.034 326.032 496.062 326.415 496.014C326.799 495.965 327.169 495.84 327.503 495.646C327.704 495.541 327.876 495.39 328.006 495.205L311.619 470.55C311.406 470.237 311.327 469.852 311.397 469.48C311.468 469.108 311.684 468.779 311.996 468.566C312.309 468.353 312.694 468.274 313.065 468.344C313.437 468.415 313.765 468.631 313.978 468.944C321.474 479.771 329.893 489.927 339.141 499.298C340.165 500.424 341.562 501.14 343.073 501.313C343.197 501.31 343.318 501.273 343.423 501.207C343.529 501.14 343.614 501.046 343.67 500.936C344.016 500.4 343.67 499.393 342.947 498.007C339.161 491.52 334.632 485.497 329.453 480.059L322.439 473.384C322.212 473.114 322.092 472.77 322.1 472.417C322.108 472.064 322.245 471.727 322.484 471.468C322.724 471.209 323.05 471.046 323.4 471.01C323.751 470.975 324.103 471.069 324.389 471.274C326.874 473.415 329.233 475.651 331.498 478.013L355.529 500.841C356.462 501.904 357.746 502.596 359.146 502.793C359.273 502.798 359.4 502.772 359.515 502.717C359.63 502.663 359.73 502.581 359.806 502.478C360.53 501.723 359.806 500.022 358.768 498.637C348.235 483.84 335.774 470.518 321.716 459.026C321.458 458.781 321.3 458.45 321.27 458.095C321.241 457.741 321.343 457.388 321.557 457.104C321.771 456.82 322.081 456.625 322.429 456.555C322.778 456.486 323.139 456.547 323.446 456.727C329.229 460.757 335.593 463.878 342.318 465.984C344.52 466.677 345.683 466.394 345.904 465.984C346.124 465.575 345.904 464.19 344.362 462.552C339.998 458.069 335.228 454.001 330.114 450.398C320.064 442.85 309.118 436.579 297.528 431.726C279.064 424.011 260.601 422.028 240.911 419.918L234.777 419.225C234.591 419.206 234.41 419.149 234.246 419.059C234.082 418.969 233.937 418.848 233.82 418.701C233.703 418.555 233.616 418.387 233.564 418.206C233.513 418.026 233.497 417.837 233.519 417.651C233.539 417.464 233.595 417.284 233.685 417.119C233.775 416.955 233.896 416.809 234.043 416.692C234.189 416.575 234.357 416.488 234.537 416.437C234.717 416.385 234.906 416.37 235.092 416.391L241.383 417.053C261.167 419.194 279.819 421.209 298.66 429.081C310.47 433.978 321.627 440.324 331.875 447.974C337.133 451.718 342.039 455.933 346.533 460.569C348.797 463.025 349.489 465.701 348.357 467.496C347.697 468.503 345.935 470.015 341.5 468.629C338.941 467.846 336.43 466.91 333.983 465.827C344.039 475.247 353.133 485.647 361.127 496.874C363.298 500.022 363.581 502.573 361.977 504.336C361.633 504.715 361.216 505.019 360.751 505.23C360.286 505.442 359.782 505.555 359.272 505.564L359.24 505.974Z" fill="#212529"/>
<path d="M477.79 501.093L523.681 378.134L336.247 381.85L294.225 522.064L477.79 501.093Z" fill="white"/>
<path d="M294.225 523.733C293.996 523.735 293.769 523.685 293.562 523.587C293.355 523.489 293.173 523.345 293.03 523.166C292.865 522.967 292.75 522.732 292.696 522.48C292.641 522.228 292.648 521.966 292.715 521.717L334.738 381.503C334.84 381.186 335.036 380.908 335.3 380.705C335.564 380.503 335.884 380.386 336.216 380.37L523.649 376.654C523.906 376.65 524.161 376.709 524.39 376.824C524.62 376.939 524.819 377.107 524.97 377.315C525.107 377.528 525.195 377.768 525.228 378.018C525.261 378.269 525.237 378.524 525.159 378.764L479.268 501.565C479.165 501.844 478.987 502.088 478.754 502.272C478.521 502.455 478.242 502.57 477.947 502.604L294.414 523.733H294.225ZM337.443 383.487L296.553 520.332L476.783 499.739L521.51 379.835L337.443 383.487Z" fill="#212529"/>
<path d="M467.787 502.227C467.787 502.227 518.648 543.57 500.782 581.481C482.917 619.392 157.935 662.719 157.935 662.719L143.309 613.157C143.309 613.157 398.243 482.799 467.787 502.227Z" fill="#212529"/>
<path d="M157.936 664.293C157.596 664.288 157.268 664.176 156.997 663.972C156.725 663.768 156.525 663.484 156.426 663.16L141.8 613.598C141.688 613.25 141.706 612.873 141.851 612.537C141.995 612.201 142.256 611.93 142.586 611.772C143.215 611.426 207.161 578.836 278.813 548.986C375.219 508.839 438.913 492.591 468.102 500.715C468.322 500.776 468.525 500.883 468.7 501.03C477.575 508.579 485.459 517.223 492.164 526.755C506.192 546.971 509.59 566.115 501.978 582.174C483.797 620.399 171.429 662.498 158.156 664.262L157.936 664.293ZM145.165 613.913L159.068 660.892C181.778 657.744 482.256 616.243 499.147 580.757C515.754 545.742 470.838 506.792 466.938 503.612C400.822 485.948 164.226 604.467 145.354 613.976L145.165 613.913Z" fill="#212529"/>
<path d="M126.482 483.24C126.482 483.24 378.836 585.385 441.397 612.339L405.037 668.575C405.037 668.575 172.027 664.01 105.219 605.411C38.4109 546.813 42.8459 449.264 126.482 483.24Z" fill="#212529"/>
<path d="M405.037 670.213C404.471 670.213 345.935 668.985 280.008 660.609C191.308 649.305 132.175 631.168 104.212 606.639C69.2356 575.97 44.7331 522.127 63.9828 490.86C70.2736 480.469 87.07 465.512 127.142 481.76C129.658 482.799 380.22 584.252 442.09 610.859C442.3 610.944 442.489 611.077 442.642 611.246C442.794 611.415 442.906 611.616 442.97 611.835C443.033 612.056 443.049 612.288 443.017 612.516C442.984 612.744 442.904 612.962 442.782 613.157L406.421 669.488C406.273 669.719 406.068 669.908 405.825 670.035C405.582 670.162 405.311 670.223 405.037 670.213ZM95.4996 477.761C82.5721 477.761 72.6641 482.736 66.625 492.497C51.7788 516.648 64.1401 567.343 106.257 604.278C169.825 660.042 388.492 666.655 404.188 667.032L439.101 613.031C374.495 585.322 128.432 485.696 125.915 484.688C116.309 480.465 105.986 478.113 95.4996 477.761Z" fill="#212529"/>
<path d="M478.765 452.004C479.036 453.457 479.663 454.82 480.589 455.971L485.496 463.308C485.317 462.55 484.973 461.841 484.49 461.23C484.007 460.619 483.396 460.122 482.7 459.774C482.004 459.425 481.24 459.234 480.463 459.214C479.685 459.193 478.912 459.344 478.199 459.655C476.805 460.41 475.647 461.536 474.853 462.909C474.06 464.281 473.661 465.847 473.701 467.433C473.842 470.6 474.589 473.711 475.902 476.596C479.394 485.664 487.289 498.92 498.706 492.056C506.444 487.396 508.583 470.959 509.684 462.773C511.854 446.651 506.916 425.932 486.219 429.081C486.816 437.02 489.774 444.598 494.712 450.839C491.346 447.564 477.727 442.495 478.765 452.004Z" fill="white"/>
<path d="M492.384 495.394C491.12 495.403 489.864 495.19 488.673 494.764C481.218 492.214 476.563 482.61 474.456 477.1C473.083 474.042 472.304 470.751 472.159 467.402C472.108 465.54 472.586 463.702 473.539 462.102C474.491 460.502 475.878 459.206 477.538 458.365C478.308 458.013 479.145 457.831 479.991 457.829L479.299 456.79C478.226 455.437 477.511 453.834 477.223 452.13C476.973 450.88 477.146 449.581 477.716 448.441C478.286 447.3 479.219 446.382 480.369 445.833C483.594 444.836 487.076 445.095 490.12 446.557C487.098 441.27 485.292 435.375 484.835 429.302C484.815 428.939 484.928 428.58 485.155 428.296C485.381 428.011 485.704 427.82 486.062 427.759C489.21 427.069 492.478 427.156 495.585 428.012C498.692 428.868 501.544 430.466 503.896 432.671C511.288 439.976 512.515 453.138 511.162 463.056C509.936 472.125 507.734 488.404 499.493 493.379C497.361 494.709 494.896 495.408 492.384 495.394ZM480.18 460.758C479.673 460.751 479.17 460.847 478.702 461.041C477.557 461.682 476.611 462.627 475.967 463.771C475.324 464.916 475.007 466.215 475.053 467.528C475.177 470.511 475.882 473.442 477.129 476.155C478.702 480.186 483.042 489.852 489.711 492.119C491.087 492.56 492.545 492.678 493.974 492.465C495.403 492.252 496.764 491.714 497.952 490.891C505.029 486.641 507.168 470.645 508.206 462.962C509.495 453.516 508.457 441.235 501.915 434.623C500.058 432.874 497.825 431.575 495.387 430.827C492.949 430.079 490.372 429.902 487.855 430.309C488.664 437.476 491.465 444.272 495.939 449.926C496.168 450.209 496.28 450.57 496.251 450.934C496.222 451.297 496.054 451.636 495.781 451.878C495.513 452.131 495.159 452.271 494.79 452.271C494.422 452.271 494.068 452.131 493.8 451.878C491.692 449.8 484.741 446.84 481.627 448.352C480.935 448.667 480.054 449.391 480.275 451.847C480.549 453.061 481.086 454.2 481.847 455.184L484.489 459.089C485.182 459.538 485.767 460.136 486.202 460.838C486.637 461.54 486.911 462.33 487.006 463.151C487.039 463.472 486.965 463.795 486.794 464.069C486.623 464.343 486.365 464.552 486.062 464.662C485.761 464.77 485.432 464.773 485.13 464.67C484.827 464.567 484.568 464.364 484.395 464.095L482.445 461.199C481.741 460.857 480.96 460.705 480.18 460.758Z" fill="#212529"/>
<path d="M407.899 600.688C407.701 600.719 407.5 600.719 407.302 600.688C401.797 598.547 271.704 548.136 242.389 530.156C242.024 529.929 241.764 529.566 241.664 529.148C241.564 528.73 241.632 528.289 241.854 527.921C241.964 527.737 242.109 527.577 242.282 527.45C242.454 527.323 242.65 527.232 242.858 527.182C243.066 527.132 243.282 527.124 243.493 527.159C243.705 527.194 243.907 527.271 244.088 527.385C273.151 545.207 407.113 597.13 408.465 597.634C408.869 597.789 409.196 598.098 409.373 598.494C409.549 598.889 409.563 599.339 409.409 599.744C409.279 600.033 409.066 600.277 408.797 600.445C408.528 600.613 408.216 600.698 407.899 600.688Z" fill="white"/>
<path d="M256.166 395.075C284.846 395.075 308.096 373.04 308.096 345.86C308.096 318.679 284.846 296.645 256.166 296.645C227.486 296.645 204.236 318.679 204.236 345.86C204.236 373.04 227.486 395.075 256.166 395.075Z" fill="#212529"/>
<path d="M256.166 396.617C226.662 396.617 202.694 373.852 202.694 345.859C202.694 317.867 226.694 295.07 256.166 295.07C285.638 295.07 309.637 317.867 309.637 345.859C309.637 373.852 285.67 396.617 256.166 396.617ZM256.166 298.219C228.392 298.219 205.84 319.599 205.84 345.859C205.84 372.12 228.424 393.469 256.166 393.469C283.908 393.469 306.492 372.12 306.492 345.859C306.492 319.599 283.94 298.219 256.166 298.219Z" fill="#212529"/>
<path d="M228.77 361.855L216.188 354.487V344.757L228.77 337.389C232.963 334.975 237.157 332.519 241.351 330.021V341.798C239.118 343.183 236.885 344.537 234.651 345.828C232.418 347.119 230.216 348.441 227.952 349.858L234.651 353.574L241.351 357.321V369.223L228.77 361.855Z" fill="white"/>
<path d="M244.905 372.34L259.72 315.915L267.458 319.41L252.58 375.741L244.905 372.34Z" fill="white"/>
<path d="M283.751 337.389L296.332 344.757V354.487L283.751 361.855L271.169 369.223V357.321L277.869 353.574L284.569 349.858C282.335 348.441 280.102 347.088 277.869 345.828C275.636 344.569 273.434 343.183 271.169 341.798V330.021L283.751 337.389Z" fill="white"/>
<path d="M148.499 482.799C148.082 482.824 147.672 482.682 147.36 482.405C147.047 482.127 146.857 481.737 146.832 481.319C146.807 480.901 146.949 480.491 147.226 480.178C147.503 479.865 147.894 479.675 148.311 479.65L223.8 470.487L235.784 410L139.063 401.813C138.832 401.797 138.607 401.73 138.406 401.615C138.204 401.501 138.031 401.342 137.899 401.152C137.758 400.966 137.662 400.75 137.618 400.52C137.575 400.291 137.585 400.054 137.648 399.829L177.405 251.649C177.514 251.231 177.784 250.874 178.155 250.655C178.527 250.437 178.97 250.375 179.387 250.484C179.804 250.592 180.161 250.862 180.379 251.234C180.598 251.606 180.659 252.05 180.551 252.467L141.265 398.853L237.734 406.851C237.955 406.875 238.169 406.943 238.364 407.051C238.558 407.159 238.729 407.305 238.866 407.481C238.998 407.66 239.091 407.864 239.14 408.081C239.189 408.298 239.192 408.522 239.149 408.74L226.568 472.062C226.5 472.386 226.333 472.68 226.091 472.906C225.849 473.131 225.543 473.276 225.215 473.321L148.499 482.61V482.799Z" fill="#212529"/>
</g>
<defs>
<clipPath id="clip0_111_965">
<rect width="564" height="698" fill="white"/>
</clipPath>
</defs>
</svg>
